<?xml version="1.0" encoding="UTF-8"?>
<svg version="1.1" xmlns="http://www.w3.org/2000/svg" width="64" height="64">
<path d="M0 0 C1.29997925 0.00303635 1.29997925 0.00303635 2.6262207 0.00613403 C3.51027588 0.00517731 4.39433105 0.00422058 5.30517578 0.00323486 C7.178142 0.00255302 9.05111056 0.0044076 10.92407227 0.00857544 C13.80140458 0.01392364 16.67858078 0.0086306 19.5559082 0.00222778 C21.37101272 0.00288856 23.18611713 0.00416972 25.0012207 0.00613403 C25.86787354 0.0041098 26.73452637 0.00208557 27.62744141 0 C33.69877061 0.02399644 33.69877061 0.02399644 34.8137207 1.13894653 C34.902149 3.58698421 34.92908043 6.00739448 34.91137695 8.45535278 C34.91036987 9.10306641 34.90936279 9.75078003 34.9083252 10.41812134 C34.90307913 12.84591432 34.88911795 15.27368214 34.8762207 17.70144653 C34.8555957 23.12582153 34.8349707 28.55019653 34.8137207 34.13894653 C20.9537207 34.13894653 7.0937207 34.13894653 -7.1862793 34.13894653 C-7.2069043 28.71457153 -7.2275293 23.29019653 -7.2487793 17.70144653 C-7.2578833 15.98771851 -7.2669873 14.27399048 -7.27636719 12.5083313 C-7.27928646 11.15733926 -7.28183499 9.80634634 -7.28393555 8.45535278 C-7.28905151 7.74793945 -7.29416748 7.04052612 -7.29943848 6.31167603 C-7.29974962 4.58702036 -7.24853691 2.86247816 -7.1862793 1.13894653 C-5.29004728 -0.75728549 -2.5225757 0.00997028 0 0 Z " fill="#D3D3D3" transform="translate(18.186279296875,2.861053466796875)"/>
<path d="M0 0 C1.29997925 0.00303635 1.29997925 0.00303635 2.6262207 0.00613403 C3.51027588 0.00517731 4.39433105 0.00422058 5.30517578 0.00323486 C7.178142 0.00255302 9.05111056 0.0044076 10.92407227 0.00857544 C13.80140458 0.01392364 16.67858078 0.0086306 19.5559082 0.00222778 C21.37101272 0.00288856 23.18611713 0.00416972 25.0012207 0.00613403 C25.86787354 0.0041098 26.73452637 0.00208557 27.62744141 0 C33.69877061 0.02399644 33.69877061 0.02399644 34.8137207 1.13894653 C34.902149 3.58698421 34.92908043 6.00739448 34.91137695 8.45535278 C34.91036987 9.10306641 34.90936279 9.75078003 34.9083252 10.41812134 C34.90307913 12.84591432 34.88911795 15.27368214 34.8762207 17.70144653 C34.8555957 23.12582153 34.8349707 28.55019653 34.8137207 34.13894653 C20.9537207 34.13894653 7.0937207 34.13894653 -7.1862793 34.13894653 C-7.1862793 27.20894653 -7.1862793 20.27894653 -7.1862793 13.13894653 C-6.8562793 13.13894653 -6.5262793 13.13894653 -6.1862793 13.13894653 C-5.8562793 19.40894653 -5.5262793 25.67894653 -5.1862793 32.13894653 C-1.2262793 32.46894653 2.7337207 32.79894653 6.8137207 33.13894653 C6.6899707 31.86019653 6.5662207 30.58144653 6.4387207 29.26394653 C6.38049655 23.16011436 9.40702286 18.99551875 12.8137207 14.13894653 C16.99719623 15.53343838 17.78441725 17.80191494 19.8059082 21.57254028 C21.38259463 25.58759061 21.15260565 28.86899625 20.8137207 33.13894653 C26.7537207 32.64394653 26.7537207 32.64394653 32.8137207 32.13894653 C33.1437207 24.54894653 33.4737207 16.95894653 33.8137207 9.13894653 C31.91106445 9.20855591 30.0084082 9.27816528 28.0480957 9.34988403 C25.55333929 9.40615673 23.05854476 9.46075739 20.5637207 9.51394653 C19.30946289 9.56421997 18.05520508 9.61449341 16.76293945 9.66629028 C13.34676717 9.72109519 10.18160219 9.72147086 6.8137207 9.13894653 C4.2512207 6.17019653 4.2512207 6.17019653 2.8137207 3.13894653 C0.49236593 2.21780162 0.49236593 2.21780162 -1.9362793 2.26394653 C-3.3387793 2.22269653 -4.7412793 2.18144653 -6.1862793 2.13894653 C-6.1862793 5.43894653 -6.1862793 8.73894653 -6.1862793 12.13894653 C-6.5162793 12.13894653 -6.8462793 12.13894653 -7.1862793 12.13894653 C-7.21315209 10.32652602 -7.23261645 8.5139942 -7.2487793 6.70144653 C-7.26038086 5.6921106 -7.27198242 4.68277466 -7.28393555 3.64285278 C-7.09367238 -1.23549479 -4.19328409 0.01657362 0 0 Z " fill="#2A1916" transform="translate(18.186279296875,2.861053466796875)"/>
<path d="M0 0 C2.5 0.3125 2.5 0.3125 5 1 C7.01875495 5.0375099 6.72207541 9.63203565 6 14 C4.10879057 17.15930361 1.65915793 19.47911829 -1 22 C-2.14111966 23.27744812 -3.26736058 24.56841564 -4.375 25.875 C-4.85710938 26.42929687 -5.33921875 26.98359375 -5.8359375 27.5546875 C-7.0954428 29.01360037 -7.0954428 29.01360037 -8 31 C-12.29 31 -16.58 31 -21 31 C-22.07225943 19.68170603 -22.07225943 19.68170603 -19.171875 15.1328125 C-13.36279211 9.11214049 -13.36279211 9.11214049 -9.19921875 8.76953125 C-8.47347656 8.84558594 -7.74773438 8.92164063 -7 9 C-6.58823246 12.60296594 -6.8464147 13.78402067 -9 16.8125 C-9.66 17.534375 -10.32 18.25625 -11 19 C-9.68712379 17.85459775 -8.37470979 16.70866567 -7.0625 15.5625 C-5.96615234 14.60537109 -5.96615234 14.60537109 -4.84765625 13.62890625 C-1.84944133 10.98565969 -1.82187865 10.04647445 -1.5 6 C-1.11111111 1.11111111 -1.11111111 1.11111111 0 0 Z " fill="#E09F8B" transform="translate(58,30)"/>
<path d="M0 0 C1.65 0.33 3.3 0.66 5 1 C4.99097656 1.64066406 4.98195313 2.28132813 4.97265625 2.94140625 C5.15161793 8.16241888 5.65248242 11.29318789 9.4375 15.0625 C11.26826301 16.68687219 12.81192978 17.90596489 15 19 C14.01 17.9171875 14.01 17.9171875 13 16.8125 C10.8464147 13.78402067 10.58823246 12.60296594 11 9 C14.18817281 8.66589308 15.68995791 8.80924278 18.45703125 10.51171875 C22.20001881 13.96917161 24.72444721 16.33551221 25.578125 21.4921875 C25.56405048 24.70821443 25.39933791 27.8102268 25 31 C20.61675055 31.34204548 16.37461062 31.50854849 12 31 C9.75 28.5625 9.75 28.5625 8 25 C6.46904058 23.48821181 4.90297503 22.01154433 3.3125 20.5625 C0.32001262 17.63869266 -0.88355637 16.40412789 -2.0625 12.3125 C-2.041875 11.219375 -2.02125 10.12625 -2 9 C-2.061875 7.9275 -2.12375 6.855 -2.1875 5.75 C-2 3 -2 3 0 0 Z " fill="#CC917F" transform="translate(2,30)"/>
<path d="M0 0 C0.33 0 0.66 0 1 0 C1.33 6.27 1.66 12.54 2 19 C5.96 19.33 9.92 19.66 14 20 C13.87625 18.72125 13.7525 17.4425 13.625 16.125 C13.56677585 10.02116783 16.59330216 5.85657222 20 1 C23.68655787 2.22885262 23.98693012 3.13979623 25.75 6.5 C26.19859375 7.3146875 26.6471875 8.129375 27.109375 8.96875 C28 12 28 12 27 21 C18.09 21 9.18 21 0 21 C0 14.07 0 7.14 0 0 Z " fill="#12110F" transform="translate(11,16)"/>
<path d="M0 0 C2.5 0.3125 2.5 0.3125 5 1 C7.01426356 5.02852711 6.74831706 9.64456087 6 14 C4.0505287 17.12402775 1.74321952 19.55769486 -1 22 C-1 21.01 -1 20.02 -1 19 C-0.03320312 18.12601563 -0.03320312 18.12601563 0.953125 17.234375 C3.68762281 14.24938884 3.59035212 12.24119699 3.75 8.25 C3.80671875 7.07953125 3.8634375 5.9090625 3.921875 4.703125 C3.94765625 3.81109375 3.9734375 2.9190625 4 2 C3.01 2.33 2.02 2.66 1 3 C1.020625 3.6290625 1.04125 4.258125 1.0625 4.90625 C0.89704805 11.77250585 -0.99813644 14.96818061 -5.89453125 19.69921875 C-8 21 -8 21 -10.19921875 20.89453125 C-10.79347656 20.59933594 -11.38773438 20.30414063 -12 20 C-13 17 -13 17 -12.22265625 15.17578125 C-11.1484375 13.45052083 -10.07421875 11.72526042 -9 10 C-10.29854721 11.07507629 -11.58858361 12.16043736 -12.875 13.25 C-13.59429687 13.85328125 -14.31359375 14.4565625 -15.0546875 15.078125 C-17.80018028 17.79053955 -18.90240718 19.71177474 -19.1953125 23.578125 C-19.17210937 24.45984375 -19.14890625 25.3415625 -19.125 26.25 C-19.10695312 27.14203125 -19.08890625 28.0340625 -19.0703125 28.953125 C-19.04710937 29.62859375 -19.02390625 30.3040625 -19 31 C-19.66 31 -20.32 31 -21 31 C-22.36039752 20.13361491 -22.36039752 20.13361491 -19.171875 15.1328125 C-13.36279211 9.11214049 -13.36279211 9.11214049 -9.19921875 8.76953125 C-8.47347656 8.84558594 -7.74773438 8.92164063 -7 9 C-6.58823246 12.60296594 -6.8464147 13.78402067 -9 16.8125 C-9.66 17.534375 -10.32 18.25625 -11 19 C-9.68712379 17.85459775 -8.37470979 16.70866567 -7.0625 15.5625 C-5.96615234 14.60537109 -5.96615234 14.60537109 -4.84765625 13.62890625 C-1.84944133 10.98565969 -1.82187865 10.04647445 -1.5 6 C-1.11111111 1.11111111 -1.11111111 1.11111111 0 0 Z " fill="#1B1311" transform="translate(58,30)"/>
<path d="M0 0 C9.24 0 18.48 0 28 0 C28 1.65 28 3.3 28 5 C19.42 5 10.84 5 2 5 C1.34 3.35 0.68 1.7 0 0 Z " fill="#F3593A" transform="translate(23,5)"/>
<path d="M0 0 C1.67542976 0.28604898 3.34385343 0.61781233 5 1 C4.99097656 1.64066406 4.98195313 2.28132813 4.97265625 2.94140625 C5.15161793 8.16241888 5.65248242 11.29318789 9.4375 15.0625 C11.26826301 16.68687219 12.81192978 17.90596489 15 19 C14.01 17.9171875 14.01 17.9171875 13 16.8125 C10.8464147 13.78402067 10.58823246 12.60296594 11 9 C14.18817281 8.66589308 15.68995791 8.80924278 18.45703125 10.51171875 C22.20001881 13.96917161 24.72444721 16.33551221 25.578125 21.4921875 C25.56405048 24.70821443 25.39933791 27.8102268 25 31 C24.34 30.67 23.68 30.34 23 30 C23.06960937 29.12988281 23.06960937 29.12988281 23.140625 28.2421875 C23.40304252 22.56272253 22.85288432 19.46123447 19 15 C17.06339471 13.21454439 15.08867997 11.61397998 13 10 C14.051875 11.60875 14.051875 11.60875 15.125 13.25 C16.2421875 15.17578125 16.2421875 15.17578125 17 17 C16.25 19.4375 16.25 19.4375 15 21 C10.71885013 20.22333122 8.41573654 18.31559233 5.41796875 15.25390625 C2.82491623 11.13216712 3.46653703 6.68261942 4 2 C2.68 2 1.36 2 0 2 C0 3.32 0 4.64 0 6 C-0.66 6 -1.32 6 -2 6 C-1.125 1.125 -1.125 1.125 0 0 Z " fill="#18100E" transform="translate(2,30)"/>
<path d="M0 0 C3.96 0 7.92 0 12 0 C12 2.64 12 5.28 12 8 C8.04 8 4.08 8 0 8 C0 5.36 0 2.72 0 0 Z " fill="#233741" transform="translate(26,29)"/>
<path d="M0 0 C2.5 0.3125 2.5 0.3125 5 1 C7.01426356 5.02852711 6.74831706 9.64456087 6 14 C4.0505287 17.12402775 1.74321952 19.55769486 -1 22 C-1 21.01 -1 20.02 -1 19 C-0.03320312 18.12601563 -0.03320312 18.12601563 0.953125 17.234375 C3.68762281 14.24938884 3.59035212 12.24119699 3.75 8.25 C3.80671875 7.07953125 3.8634375 5.9090625 3.921875 4.703125 C3.94765625 3.81109375 3.9734375 2.9190625 4 2 C3.01 2.33 2.02 2.66 1 3 C0.67 5.64 0.34 8.28 0 11 C-0.33 11 -0.66 11 -1 11 C-1.02688151 9.35425434 -1.04634123 7.70838587 -1.0625 6.0625 C-1.07410156 5.14597656 -1.08570313 4.22945312 -1.09765625 3.28515625 C-1 1 -1 1 0 0 Z " fill="#010000" transform="translate(58,30)"/>
<path d="M0 0 C0.33 0 0.66 0 1 0 C1 6.27 1 12.54 1 19 C-2.63 19 -6.26 19 -10 19 C-10 18.34 -10 17.68 -10 17 C-7.03 17 -4.06 17 -1 17 C-1.01160156 15.85660156 -1.02320313 14.71320312 -1.03515625 13.53515625 C-1.04453288 12.04427246 -1.05363321 10.55338691 -1.0625 9.0625 C-1.07087891 8.30775391 -1.07925781 7.55300781 -1.08789062 6.77539062 C-1.09652441 4.85005687 -1.05224333 2.92464419 -1 1 C-0.67 0.67 -0.34 0.34 0 0 Z " fill="#F8F8F8" transform="translate(50,16)"/>
<path d="M0 0 C3.18817281 -0.33410692 4.68995791 -0.19075722 7.45703125 1.51171875 C11.20001881 4.96917161 13.72444721 7.33551221 14.578125 12.4921875 C14.56405048 15.70821443 14.39933791 18.8102268 14 22 C13.34 21.67 12.68 21.34 12 21 C12.06960937 20.12988281 12.06960937 20.12988281 12.140625 19.2421875 C12.46623574 12.19504075 10.59080598 8.89560668 5.875 3.625 C4.1616335 1.78168982 4.1616335 1.78168982 2 2 C1.34 2.66 0.68 3.32 0 4 C0 2.68 0 1.36 0 0 Z " fill="#080504" transform="translate(13,39)"/>
<path d="M0 0 C0 0.66 0 1.32 0 2 C-0.70125 2.020625 -1.4025 2.04125 -2.125 2.0625 C-6.36757751 3.44594919 -8.42179573 6.46720744 -11 10 C-12.26237731 12.52475462 -12.09856404 14.31200466 -12.0625 17.125 C-12.05347656 18.03507812 -12.04445312 18.94515625 -12.03515625 19.8828125 C-12.02355469 20.58148438 -12.01195312 21.28015625 -12 22 C-12.66 22 -13.32 22 -14 22 C-15.36039752 11.13361491 -15.36039752 11.13361491 -12.171875 6.1328125 C-5.68024687 -0.59526566 -5.68024687 -0.59526566 0 0 Z " fill="#080505" transform="translate(51,39)"/>
<path d="M0 0 C1.98 0 3.96 0 6 0 C6.66 1.65 7.32 3.3 8 5 C4.7 5 1.4 5 -2 5 C-1.34 3.35 -0.68 1.7 0 0 Z " fill="#CEA521" transform="translate(29,23)"/>
<path d="M0 0 C1.65 0 3.3 0 5 0 C5 2.31 5 4.62 5 7 C3.35 7 1.7 7 0 7 C0 4.69 0 2.38 0 0 Z " fill="#71B4D7" transform="translate(26,29)"/>
<path d="M0 0 C0.66 0 1.32 0 2 0 C3.125 2.3125 3.125 2.3125 4 5 C3.01 6.485 3.01 6.485 2 8 C1.01 7.67 0.02 7.34 -1 7 C-1 6.34 -1 5.68 -1 5 C-1.66 5 -2.32 5 -3 5 C-1.125 1.125 -1.125 1.125 0 0 Z " fill="#0E0B01" transform="translate(58,15)"/>
<path d="M0 0 C1.9375 0.8125 1.9375 0.8125 4 2 C4.33 2.99 4.66 3.98 5 5 C4.34 5 3.68 5 3 5 C2.67 5.99 2.34 6.98 2 8 C1.34 8 0.68 8 0 8 C-1.125 5.6875 -1.125 5.6875 -2 3 C-1.34 2.01 -0.68 1.02 0 0 Z " fill="#0E0B01" transform="translate(4,15)"/>
<path d="M0 0 C1.65 0 3.3 0 5 0 C5 1.98 5 3.96 5 6 C3.35 6 1.7 6 0 6 C0 4.02 0 2.04 0 0 Z " fill="#7EC2E5" transform="translate(33,29)"/>
<path d="M0 0 C1.67542976 0.28604898 3.34385343 0.61781233 5 1 C4.67 1.66 4.34 2.32 4 3 C3.01 3 2.02 3 1 3 C0.67 5.64 0.34 8.28 0 11 C-0.33 11 -0.66 11 -1 11 C-1.02688151 9.35425434 -1.04634123 7.70838587 -1.0625 6.0625 C-1.07410156 5.14597656 -1.08570313 4.22945312 -1.09765625 3.28515625 C-1 1 -1 1 0 0 Z " fill="#0E0908" transform="translate(58,30)"/>
<path d="M0 0 C0.99 0.33 1.98 0.66 3 1 C3.33 1.99 3.66 2.98 4 4 C2.35 4.33 0.7 4.66 -1 5 C-1.33 4.34 -1.66 3.68 -2 3 C-1.34 2.01 -0.68 1.02 0 0 Z " fill="#585858" transform="translate(31,17)"/>
<path d="M0 0 C0.66 0 1.32 0 2 0 C1.40312566 3.34249629 0.26396123 5.46436342 -2 8 C-2.66 8 -3.32 8 -4 8 C-2.87548273 5.0280615 -1.77706209 2.66559313 0 0 Z " fill="#251A17" transform="translate(49,41)"/>
</svg>
